<mxfile host="app.diagrams.net" modified="2023-11-05T17:07:29.714Z" agent="Mozilla/5.0 (X11; Ubuntu; Linux x86_64; rv:109.0) Gecko/20100101 Firefox/119.0" etag="gLfR-uwwu7BlNXO1Vhim" version="22.0.8" type="github">
  <diagram name="Page-1" id="tcNlGiSoPxWkHCK1hjD1">
    <mxGraphModel dx="1382" dy="786" grid="1" gridSize="10" guides="1" tooltips="1" connect="1" arrows="1" fold="1" page="1" pageScale="1" pageWidth="850" pageHeight="1100" math="0" shadow="0">
      <root>
        <mxCell id="0" />
        <mxCell id="1" parent="0" />
      </root>
    </mxGraphModel>
  </diagram>
</mxfile>
